<?xml version="1.0" encoding="UTF-8"?>
<svg xmlns="http://www.w3.org/2000/svg" xmlns:xlink="http://www.w3.org/1999/xlink" width="921px" height="691px" viewBox="0 0 921 691" version="1.1">
<defs>
<clipPath id="clip1">
  <path d="M 221.449219 100 L 699.550781 100 L 699.550781 591 L 221.449219 591 Z M 221.449219 100 "/>
</clipPath>
<clipPath id="clip2">
  <path d="M 346.503906 227.609375 L 574.5 227.609375 L 574.5 463.394531 L 346.503906 463.394531 Z M 346.503906 227.609375 "/>
</clipPath>
<clipPath id="clip3">
  <path d="M 375.933594 257.050781 L 545.0625 257.050781 L 545.0625 360.316406 L 375.933594 360.316406 Z M 375.933594 257.050781 "/>
</clipPath>
<clipPath id="clip4">
  <path d="M 375.933594 370.128906 L 545.0625 370.128906 L 545.0625 433.945312 L 375.933594 433.945312 Z M 375.933594 370.128906 "/>
</clipPath>
</defs>
<g id="surface1">
<rect x="0" y="0" width="921" height="691" style="fill:rgb(98.823529%,89.411765%,30.196078%);fill-opacity:1;stroke:none;"/>
<g clip-path="url(#clip1)" clip-rule="nonzero">
<path style=" stroke:none;fill-rule:nonzero;fill:rgb(0%,0%,0%);fill-opacity:1;" d="M 252.765625 416.074219 L 258.332031 423.039062 L 255.550781 413.984375 C 254.855469 409.808594 249.984375 414.683594 252.765625 416.074219 M 259.03125 411.898438 C 261.117188 415.378906 263.207031 418.859375 263.207031 422.339844 C 263.207031 427.214844 267.382812 429.300781 270.859375 430.695312 C 265.988281 425.125 263.203125 409.808594 259.03125 411.898438 M 526.265625 116.71875 C 538.09375 116.71875 549.230469 115.324219 561.757812 118.109375 C 592.378906 125.769531 618.128906 141.085938 635.527344 162.667969 L 684.242188 240.636719 C 686.328125 260.132812 690.503906 281.714844 689.808594 305.382812 C 694.679688 305.382812 693.984375 298.421875 699.550781 297.027344 C 693.984375 310.953125 691.199219 328.355469 689.808594 348.546875 C 686.328125 337.40625 689.808594 320.699219 690.503906 311.648438 C 685.632812 319.308594 682.847656 313.738281 682.847656 310.253906 C 683.542969 304.6875 680.761719 305.382812 678.671875 303.292969 C 671.015625 296.332031 666.144531 288.671875 660.578125 276.839844 C 664.058594 267.789062 664.753906 254.5625 653.621094 247.601562 C 650.140625 245.511719 645.964844 242.03125 643.878906 236.460938 C 641.09375 228.800781 636.222656 219.753906 637.613281 207.917969 C 638.308594 204.4375 627.171875 215.578125 620.910156 210.703125 C 593.769531 191.90625 566.628906 170.324219 533.921875 152.222656 C 516.523438 152.222656 503.996094 145.957031 497.730469 138.300781 C 492.164062 131.335938 496.339844 122.289062 504.691406 121.589844 C 509.5625 121.589844 515.128906 120.199219 519.304688 122.984375 C 520.003906 120.199219 522.785156 116.71875 526.265625 116.71875 M 457.367188 100.707031 L 458.761719 101.402344 C 465.71875 102.796875 469.199219 112.542969 476.855469 109.0625 C 476.855469 113.933594 477.550781 118.808594 476.15625 122.289062 C 474.070312 127.855469 467.804688 127.855469 462.933594 127.855469 C 416.308594 125.074219 389.167969 144.566406 360.636719 161.273438 C 352.980469 166.148438 344.628906 169.628906 338.363281 175.894531 C 308.441406 203.742188 275.730469 229.5 268.074219 281.015625 L 261.8125 338.101562 C 261.117188 344.367188 254.15625 350.632812 255.550781 358.292969 L 260.421875 392.40625 C 255.546875 387.53125 252.765625 393.796875 254.15625 396.582031 C 254.855469 398.671875 257.636719 405.632812 261.8125 399.367188 C 267.378906 409.808594 272.949219 430 280.601562 439.050781 C 304.265625 466.898438 334.886719 491.957031 359.9375 517.019531 C 366.203125 515.628906 371.074219 515.628906 372.464844 511.449219 C 374.550781 515.628906 370.378906 519.804688 366.898438 520.503906 C 378.035156 527.464844 390.558594 533.730469 407.261719 535.121094 C 428.835938 536.515625 449.019531 539.996094 467.808594 544.867188 C 477.550781 542.085938 487.292969 540.691406 497.730469 539.996094 C 501.210938 539.996094 503.300781 534.425781 507.476562 533.03125 L 508.171875 526.070312 C 512.347656 532.335938 511.652344 523.984375 508.867188 519.804688 C 513.738281 523.984375 515.128906 527.464844 517.21875 530.25 C 517.21875 528.160156 522.785156 520.503906 522.785156 529.550781 L 524.175781 520.503906 C 526.265625 519.109375 526.960938 528.160156 529.050781 521.894531 C 531.136719 515.628906 535.3125 520.5 539.488281 518.414062 C 538.097656 521.195312 538.792969 526.765625 543.664062 523.285156 L 549.230469 518.414062 C 552.710938 526.765625 558.277344 523.285156 561.0625 521.894531 C 591.683594 502.402344 622.304688 479.425781 651.53125 456.453125 L 650.835938 465.503906 L 654.316406 454.363281 C 657.792969 457.84375 660.578125 455.0625 661.96875 452.972656 C 666.144531 446.011719 671.714844 439.050781 680.761719 432.785156 C 669.625 462.71875 656.402344 486.390625 639.703125 505.882812 L 632.742188 514.238281 C 632.742188 519.109375 631.347656 525.375 625.78125 526.070312 C 623 526.765625 617.429688 524.679688 613.257812 528.855469 C 611.167969 531.640625 618.128906 537.210938 612.558594 533.03125 C 607.6875 529.550781 602.816406 533.03125 597.25 534.425781 C 593.074219 535.820312 600.03125 539.996094 601.425781 542.777344 C 602.816406 545.5625 604.207031 548.347656 603.511719 551.832031 L 595.859375 543.476562 C 586.8125 548.351562 581.242188 557.398438 573.585938 564.363281 C 570.109375 567.144531 571.5 572.019531 571.5 576.195312 C 566.628906 576.195312 561.0625 574.800781 558.277344 577.589844 C 556.191406 580.375 556.886719 584.550781 556.886719 588.726562 C 549.925781 588.03125 549.230469 577.589844 542.96875 579.675781 C 536.703125 581.070312 529.746094 581.765625 524.175781 585.246094 C 528.351562 593.601562 517.21875 588.726562 518.609375 590.121094 C 508.171875 583.855469 499.125 578.980469 487.988281 583.15625 C 464.328125 575.5 435.097656 578.980469 413.523438 581.765625 C 413.523438 578.285156 414.222656 574.804688 412.828125 574.109375 C 411.4375 577.589844 407.261719 576.195312 407.957031 576.195312 C 394.734375 567.144531 381.511719 561.574219 367.59375 553.917969 C 355.066406 555.3125 343.238281 549.042969 339.757812 545.5625 C 330.015625 536.515625 318.878906 541.386719 309.832031 539.296875 C 290.347656 534.425781 283.386719 514.234375 281.296875 500.3125 C 279.90625 493.351562 274.339844 490.566406 272.253906 491.261719 C 263.207031 462.023438 249.285156 435.566406 238.152344 408.417969 C 235.367188 401.457031 236.0625 394.492188 236.0625 386.835938 C 239.542969 388.226562 243.023438 387.53125 242.328125 382.660156 C 238.847656 359.683594 230.496094 342.28125 221.449219 325.574219 C 226.320312 301.902344 227.015625 274.054688 238.152344 253.167969 C 247.894531 234.371094 265.988281 224.625 278.515625 208.613281 C 282.691406 203.042969 282.691406 195.386719 286.867188 190.515625 C 300.785156 176.589844 314.703125 161.96875 330.015625 149.4375 C 336.972656 143.871094 345.324219 149.4375 355.761719 147.351562 C 359.242188 134.820312 373.160156 123.679688 386.382812 127.160156 C 391.949219 128.554688 403.085938 113.933594 406.566406 112.542969 C 412.132812 110.453125 409.347656 118.109375 409.347656 122.984375 C 422.570312 112.542969 440.667969 106.972656 457.367188 100.707031 "/>
</g>
<g clip-path="url(#clip2)" clip-rule="nonzero">
<path style=" stroke:none;fill-rule:nonzero;fill:rgb(0%,0%,0%);fill-opacity:1;" d="M 346.503906 463.390625 L 346.503906 227.609375 L 574.5 227.609375 L 574.5 463.390625 Z M 346.503906 463.390625 "/>
</g>
<path style=" stroke:none;fill-rule:nonzero;fill:rgb(98.823529%,89.411765%,30.196078%);fill-opacity:1;" d="M 351.40625 458.484375 L 351.40625 232.515625 L 569.59375 232.515625 L 569.59375 458.484375 Z M 351.40625 458.484375 "/>
<path style=" stroke:none;fill-rule:nonzero;fill:rgb(0%,0%,0%);fill-opacity:1;" d="M 361.21875 448.671875 L 361.21875 242.328125 L 559.78125 242.328125 L 559.78125 448.671875 Z M 361.21875 448.671875 "/>
<g clip-path="url(#clip3)" clip-rule="nonzero">
<path style=" stroke:none;fill-rule:nonzero;fill:rgb(98.823529%,89.411765%,30.196078%);fill-opacity:1;" d="M 447.378906 360.316406 L 403.636719 360.316406 L 380.308594 280.242188 L 375.933594 265.800781 L 375.933594 257.050781 L 409.761719 257.050781 L 424.925781 327.9375 L 427.839844 327.9375 L 438.777344 257.050781 L 482.953125 257.050781 L 491.410156 310.871094 L 493.742188 327.9375 L 496.660156 327.9375 L 511.820312 257.050781 L 545.066406 257.050781 L 545.066406 265.800781 L 540.691406 280.242188 L 517.507812 360.316406 L 474.058594 360.316406 L 461.957031 288.554688 L 458.894531 288.554688 L 456.417969 304.746094 Z M 447.378906 360.316406 "/>
</g>
<g clip-path="url(#clip4)" clip-rule="nonzero">
<path style=" stroke:none;fill-rule:nonzero;fill:rgb(98.823529%,89.411765%,30.196078%);fill-opacity:1;" d="M 410.167969 370.132812 C 411.242188 370.132812 412.261719 370.238281 413.226562 370.453125 C 414.195312 370.667969 415 370.9375 415.644531 371.261719 L 415.644531 386.648438 C 413.441406 385.738281 411.078125 385.28125 408.554688 385.28125 C 405.171875 385.28125 402.570312 386.167969 400.742188 387.9375 C 398.917969 389.710938 398.003906 392.34375 398.003906 395.835938 L 398.003906 402.84375 L 405.253906 402.84375 L 405.253906 416.058594 L 375.933594 416.058594 L 375.933594 402.84375 L 379.480469 402.84375 L 379.480469 384.472656 L 375.933594 384.472656 L 375.933594 371.261719 L 398.003906 371.261719 L 398.003906 377.140625 C 399.507812 374.886719 401.226562 373.152344 403.160156 371.9375 C 405.09375 370.734375 407.429688 370.132812 410.167969 370.132812 Z M 474.910156 402.84375 L 478.453125 402.84375 L 478.453125 416.058594 L 457.191406 416.058594 L 457.191406 410.582031 C 456.007812 412.300781 454.359375 413.832031 452.242188 415.171875 C 450.117188 416.515625 447.523438 417.1875 444.464844 417.1875 C 440.4375 417.1875 437.269531 416.113281 434.957031 413.964844 C 432.648438 411.816406 431.496094 408.78125 431.496094 404.859375 C 431.496094 394.707031 440.113281 389.496094 457.351562 389.226562 C 457.191406 387.402344 456.492188 386.148438 455.257812 385.472656 C 454.019531 384.808594 451.925781 384.472656 448.972656 384.472656 C 446.558594 384.472656 443.96875 384.726562 441.210938 385.230469 C 438.4375 385.746094 435.898438 386.433594 433.589844 387.292969 L 433.589844 372.46875 C 436.4375 371.769531 439.523438 371.207031 442.851562 370.777344 C 446.183594 370.347656 449.429688 370.132812 452.597656 370.132812 C 460.597656 370.132812 466.316406 371.582031 469.753906 374.484375 C 473.191406 377.382812 474.910156 381.867188 474.910156 387.9375 Z M 457.191406 397.6875 L 457.191406 397.207031 C 454.773438 397.207031 452.910156 397.527344 451.601562 398.171875 C 450.277344 398.816406 449.617188 399.890625 449.617188 401.394531 C 449.617188 402.308594 449.902344 403.042969 450.472656 403.601562 C 451.03125 404.171875 451.820312 404.457031 452.839844 404.457031 C 454.234375 404.457031 455.308594 403.867188 456.0625 402.683594 C 456.8125 401.503906 457.191406 399.835938 457.191406 397.6875 Z M 494 433.949219 L 494 420.734375 L 497.542969 420.734375 L 497.542969 384.472656 L 494 384.472656 L 494 371.261719 L 516.070312 371.261719 L 516.070312 376.738281 C 517.410156 375.019531 519.140625 373.488281 521.253906 372.144531 C 523.382812 370.804688 525.816406 370.132812 528.554688 370.132812 C 534.03125 370.132812 538.148438 372.171875 540.910156 376.253906 C 543.679688 380.339844 545.066406 386.140625 545.066406 393.660156 C 545.066406 401.179688 543.679688 406.980469 540.910156 411.0625 C 538.148438 415.148438 534.03125 417.1875 528.554688 417.1875 C 525.816406 417.1875 523.382812 416.515625 521.253906 415.171875 C 519.140625 413.832031 517.410156 412.300781 516.070312 410.582031 L 516.070312 420.734375 L 521.625 420.734375 L 521.625 433.949219 Z M 520.738281 402.84375 C 522.296875 402.84375 523.460938 402.433594 524.234375 401.605469 C 525.019531 400.765625 525.410156 399.460938 525.410156 397.6875 L 525.410156 389.632812 C 525.410156 387.859375 525.019531 386.558594 524.234375 385.730469 C 523.460938 384.894531 522.296875 384.472656 520.738281 384.472656 C 519.183594 384.472656 518.011719 384.894531 517.226562 385.730469 C 516.457031 386.558594 516.070312 387.859375 516.070312 389.632812 L 516.070312 397.6875 C 516.070312 399.460938 516.457031 400.765625 517.226562 401.605469 C 518.011719 402.433594 519.183594 402.84375 520.738281 402.84375 Z M 520.738281 402.84375 "/>
</g>
</g>
</svg>
